HIERARCHY
ROOT Hips
{
  OFFSET 13.6774 106.653 -34.4427
  CHANNELS 6 Xposition Yposition Zposition Zrotation Xrotation Yrotation
  JOINT ToSpine
  {
    OFFSET -2.69724 7.43032 -0.144315
    CHANNELS 3 Zrotation Xrotation Yrotation
    JOINT Spine
    {
      OFFSET -0.0310711 10.7595 1.96963
      CHANNELS 3 Zrotation Xrotation Yrotation
      JOINT Spine1
      {
        OFFSET 19.9056 3.91189 0.764692
        CHANNELS 3 Zrotation Xrotation Yrotation
        JOINT Neck
        {
          OFFSET 25.9749 7.03908 -0.130764
          CHANNELS 3 Zrotation Xrotation Yrotation
          JOINT Head
          {
            OFFSET 9.52751 0.295786 -0.907742
            CHANNELS 3 Zrotation Xrotation Yrotation
            End Site
            {
              OFFSET 16.4037 0.713936 2.7358
            }
          }
        }
        JOINT LeftShoulder
        {
          OFFSET 17.7449 4.33886 11.7777
          CHANNELS 3 Zrotation Xrotation Yrotation
          JOINT LeftArm
          {
            OFFSET 0.911315 1.27913 9.80584
            CHANNELS 3 Zrotation Xrotation Yrotation
            JOINT LeftForeArm
            {
              OFFSET 28.6126 1.18197 -3.53199
              CHANNELS 3 Zrotation Xrotation Yrotation
              JOINT LeftHand
              {
                OFFSET 27.5088 0.0218783 0.327423
                CHANNELS 3 Zrotation Xrotation Yrotation
                End Site
                {
                  OFFSET 18.6038 -0.000155887 0.382096
                }
              }
            }
          }
        }
        JOINT RightShoulder
        {
          OFFSET 17.1009 2.89543 -12.2328
          CHANNELS 3 Zrotation Xrotation Yrotation
          JOINT RightArm
          {
            OFFSET 1.4228 0.178766 -10.211
            CHANNELS 3 Zrotation Xrotation Yrotation
            JOINT RightForeArm
            {
              OFFSET 28.733 1.87905 2.64907
              CHANNELS 3 Zrotation Xrotation Yrotation
              JOINT RightHand
              {
                OFFSET 27.4588 0.290562 -0.101845
                CHANNELS 3 Zrotation Xrotation Yrotation
                End Site
                {
                  OFFSET 17.8396 -0.255518 -0.000602873
                }
              }
            }
          }
        }
      }
    }
  }
  JOINT LeftUpLeg
  {
    OFFSET -5.61296 -2.22332 -10.2353
    CHANNELS 3 Zrotation Xrotation Yrotation
    JOINT LeftLeg
    {
      OFFSET 2.56703 -44.7417 -7.93097
      CHANNELS 3 Zrotation Xrotation Yrotation
      JOINT LeftFoot
      {
        OFFSET 3.16933 -46.5642 -3.96578
        CHANNELS 3 Zrotation Xrotation Yrotation
        JOINT LeftToeBase
        {
          OFFSET 0.346054 -6.02161 12.8035
          CHANNELS 3 Zrotation Xrotation Yrotation
          End Site
          {
            OFFSET 0.134235 -1.35082 5.13018
          }
        }
      }
    }
  }
  JOINT RightUpLeg
  {
    OFFSET -5.7928 -1.72406 10.6446
    CHANNELS 3 Zrotation Xrotation Yrotation
    JOINT RightLeg
    {
      OFFSET -2.57161 -44.7178 -7.85259
      CHANNELS 3 Zrotation Xrotation Yrotation
      JOINT RightFoot
      {
        OFFSET -3.10148 -46.5936 -4.03391
        CHANNELS 3 Zrotation Xrotation Yrotation
        JOINT RightToeBase
        {
          OFFSET -0.0828122 -6.13587 12.8035
          CHANNELS 3 Zrotation Xrotation Yrotation
          End Site
          {
            OFFSET -0.131328 -1.35082 5.13018
          }
        }
      }
    }
  }
}
MOTION
Frames: 14
Frame Time: 0.03333333333333333
0.0000 93.1000 0.0000 65.0601 -6.1581 15.9457 -70.9082 0.0334 88.0949 156.7739 53.3508 -58.7166 7.1831 20.2837 2.0438 -168.7295 3.0596 -178.5604 -131.3089 31.6125 159.7174 2.3215 -4.2590 -35.6265 -116.0013 38.9530 -94.3252 -0.3392 9.9855 6.6444 7.7489 -1.4775 -1.7613 -0.1255 2.0153 15.8976 -76.5072 -36.4515 140.1917 16.0807 -22.7098 32.4475 5.0241 0.4309 0.8293 9.1448 10.9775 92.1209 -165.4320 75.3559 169.3282 6.1380 3.9659 -0.3495 -12.9099 -48.7494 5.2040 -26.9275 -6.2588 88.8137 15.2211 74.1469 6.9793 -11.4551 -20.2110 0.0863 10.9589 -26.0749 -15.1856 
0.0000 93.1000 0.0000 65.0947 -6.6502 17.7741 -70.9867 0.1048 87.9906 158.6683 54.1229 -59.6273 5.2630 20.6648 2.5793 -172.2416 2.7495 -178.5048 -132.1490 31.8065 159.9066 2.3285 -4.2306 -34.8188 -116.2093 38.3630 -88.2347 -1.0940 12.5838 6.7930 6.9903 -1.4653 -1.9676 -0.0324 2.3894 15.7325 -75.1858 -38.0124 140.0950 19.1410 -19.5908 41.4516 5.2600 0.5359 2.1233 10.8687 12.0813 90.1686 -166.3848 74.7388 173.1655 6.8736 3.6359 -0.5130 -13.0365 -48.9454 4.6783 -29.0050 -6.1612 87.6571 12.3318 70.8497 11.1973 -12.5615 -19.9798 0.2673 11.8066 -27.2160 -15.8349 
0.0000 93.1000 0.0000 62.6971 -5.0957 19.9516 -70.9700 -1.5853 87.7837 158.4348 56.2247 -59.2691 2.4009 22.0866 3.8807 -174.3289 3.3162 -178.8743 -132.5504 32.7441 157.0471 1.3790 -3.8849 -32.5733 -119.4717 39.3584 -82.3292 -0.6390 14.7035 6.6709 6.3486 -1.9960 -3.8334 -1.7318 2.1472 15.2891 -73.3949 -38.8695 139.1608 19.7869 -16.1334 46.9158 5.0026 1.0647 1.5382 11.5290 11.0220 88.3689 -166.8383 75.2968 177.1294 6.4249 4.0774 0.9847 -12.7303 -50.4712 4.3456 -34.4380 -6.6544 84.3997 9.1923 65.9502 13.9407 -11.4897 -20.5093 -1.5704 10.5367 -27.6196 -15.1058 
0.0000 93.1000 0.0000 60.0616 -0.2819 23.3090 -70.7769 0.2896 88.2454 156.8713 59.3962 -55.6535 1.0868 20.4261 6.8265 -174.6611 5.2051 179.3802 -131.6095 34.1798 155.8696 2.5487 -3.0166 -30.9912 -118.4896 38.5821 -81.3749 0.2073 12.8530 6.8595 6.8194 -1.8857 -2.9402 -0.4166 1.1155 16.9045 -71.0947 -39.2282 131.8345 18.8391 -15.3593 50.3442 6.0319 0.9823 3.1018 10.7911 11.2881 88.0653 -166.9431 76.5298 177.7602 6.7438 4.2540 -0.3879 -12.3780 -50.1383 4.6964 -40.9296 -7.8069 79.7481 6.8379 56.9665 15.3252 -10.1992 -21.0421 0.2681 10.4573 -25.0302 -14.8452 
0.0000 93.1000 0.0000 56.8670 5.7077 24.8201 -70.7911 -0.0570 87.9556 151.7075 63.3687 -51.4963 -1.5588 21.2523 7.4730 -171.2158 7.6773 178.7702 -132.8841 36.9697 154.8437 2.1711 -3.2180 -28.8118 -117.6381 38.1274 -83.4988 -1.2116 11.4652 6.7529 8.5519 -1.8379 -2.6111 -1.0378 -0.0877 19.9360 -68.3690 -40.7869 122.2337 17.8566 -14.0003 50.1602 6.5374 0.9501 2.3781 6.8043 9.4595 92.2842 -162.7052 79.9905 173.3939 6.3151 4.4267 0.0234 -11.8708 -46.7834 7.0316 -49.0876 -7.4371 80.3418 3.5320 47.0920 11.3578 -8.4036 -21.2655 0.0597 9.8304 -21.0615 -17.2454 
0.0000 93.1000 0.0000 53.8258 13.2754 23.3880 -70.8210 -0.4485 88.1706 143.6725 65.1969 -47.5754 -2.2945 21.4273 6.7856 -170.9273 10.1958 178.4050 -135.0399 40.7070 155.5916 1.7299 -3.2653 -27.1630 -113.1050 35.6283 -88.0977 -1.9315 6.1670 6.6961 9.7594 -1.4071 -1.9248 -1.1127 -0.9235 22.1710 -65.3112 -43.8417 113.7532 17.8483 -14.7719 46.6005 7.3569 0.3857 1.1495 -3.0171 5.9242 98.0115 -133.3705 84.6921 137.3033 5.4955 1.5543 -0.1860 -11.2143 -43.6019 7.7683 -54.7634 -9.8316 80.7492 2.2184 43.8814 3.5332 -6.2049 -15.3956 -0.3600 9.6423 -16.1383 -22.5847 
0.0000 93.1000 0.0000 52.3541 16.9856 23.3529 -70.9048 0.2476 88.3656 140.7532 64.2482 -46.7428 -1.4274 21.1632 4.2965 -172.0472 11.4085 179.3520 -138.5260 43.8463 156.1547 2.2427 -2.0519 -26.7542 -110.1828 32.7217 -95.2885 -1.9976 4.1500 -2.2824 9.9344 -1.2636 -1.9175 -0.3809 -2.5310 24.7803 -63.5837 -45.0246 107.6587 14.2442 -15.1672 41.1045 8.8978 0.1511 0.9615 -12.8947 4.0597 102.1412 -34.5786 83.6910 34.3179 6.0915 3.9144 -0.5106 -11.6294 -48.2662 5.9544 -55.2919 -8.4883 85.1820 2.2045 51.6062 -4.9958 -4.3645 -5.2913 -0.3129 5.8730 -1.9298 -19.6201 
0.0000 93.1000 0.0000 53.0707 21.3847 22.6106 -70.9643 -0.3960 87.8342 138.7563 62.3901 -51.8031 0.1614 20.5230 1.9472 -174.7417 12.0603 179.2270 -140.8552 44.7997 159.4372 1.9953 -2.2443 -26.8074 -106.1823 27.0070 -103.0523 -1.8761 -0.1929 -12.2642 10.7361 -1.7108 -2.8764 -1.2501 -2.6277 26.3160 -66.5751 -48.1146 99.4038 12.4550 -13.1075 38.1203 8.9615 0.5223 -0.5656 -21.5179 2.0942 106.7969 -18.2145 78.5830 14.2203 5.3639 3.7782 0.6306 -12.2369 -46.9152 4.8386 -47.9882 -5.6309 91.1916 8.4225 72.7589 -9.5089 -5.1501 -3.3235 -0.9159 7.7298 -9.1608 -18.9183 
0.0000 93.1000 0.0000 50.8066 30.8996 23.1171 -70.8015 -0.1937 87.6267 135.8331 59.7895 -54.6495 1.2246 17.5860 4.2374 -173.8326 14.0690 178.4010 -138.9337 46.4166 160.8982 1.4798 -3.1627 -25.9054 -100.5804 20.0797 -112.9712 -1.2639 -6.3156 -22.1235 10.9935 -1.2771 -5.3344 -0.5980 -4.0435 27.2032 -67.5386 -52.9356 91.2222 9.9528 -9.9497 36.3073 9.6722 -0.1964 -0.0486 -28.2822 -5.5169 104.1617 -15.1801 75.9892 6.0028 5.0739 1.8325 -0.8236 -12.0326 -43.0498 4.6075 -40.2589 -4.9689 89.8893 146.4213 81.1910 -143.3951 -7.5060 -3.2453 0.9770 9.2077 -14.9540 -17.1975 
0.0000 93.1000 0.0000 47.3244 38.6143 23.4663 -70.9091 -0.6416 87.6383 129.7915 58.6967 -54.3627 1.4447 15.5659 6.3344 -171.8784 15.1600 175.9321 -136.8083 47.8310 159.9273 0.9923 -3.6736 -21.9548 -107.0742 18.2098 -120.1925 0.0339 -1.4570 -31.2252 11.0130 -1.2177 -6.6587 -0.6385 -4.1190 27.1021 -72.6177 -56.1352 79.6530 7.3272 -7.7060 35.6127 7.6537 -0.5208 0.2019 -32.3627 -11.3679 101.6187 -13.8710 73.7978 0.6332 5.0420 1.2235 -0.9549 -11.6721 -41.9424 3.3909 -26.3438 -5.7101 88.9947 167.2628 65.6587 -164.0371 -7.9589 -3.2242 1.1485 10.0275 -19.3679 -17.2747 
0.0000 93.1000 0.0000 41.2339 42.0802 28.2562 -71.1607 1.0262 88.1364 125.7291 58.5835 -51.8967 0.8275 13.7398 7.6704 -170.7572 16.5335 176.8395 -138.6947 51.0227 161.7646 1.9866 -4.6802 -21.5162 -111.3755 15.2950 -131.3344 4.0344 3.5829 -40.3436 12.4663 -1.7956 -8.1194 0.5496 -2.7378 25.7208 -76.9399 -60.2131 67.1732 4.2872 -4.3942 37.4434 7.1841 -0.0931 1.1123 -38.3939 -12.7009 98.8506 -9.9708 68.1576 -6.9735 6.3579 0.5409 -2.1970 -10.9893 -42.6118 3.9570 -8.2475 -2.8880 90.0420 169.4545 58.3691 -167.1895 -7.6692 -2.6821 2.7848 11.1613 -24.2457 -20.2520 
0.0000 93.1000 0.0000 37.5490 44.0260 35.4168 -71.3454 0.2976 88.5859 125.1029 58.2497 -49.1844 0.0202 12.6697 8.4636 -167.8615 18.4943 -180.9086 -141.6107 54.1556 163.9477 1.5052 -4.6699 -19.0390 -109.8754 15.7965 -133.2607 9.9726 5.9592 -51.3891 14.4856 -1.6914 -8.9588 0.2120 -0.8420 22.7636 -80.8454 -62.5170 56.1997 -1.7613 3.2784 38.5708 6.7179 -0.2540 1.8176 -48.6789 -11.1151 94.2816 -6.5875 56.6811 -13.7154 6.4529 0.7710 -2.0421 -10.8122 -44.9471 5.2432 2.4286 -2.1570 89.0590 168.4923 62.9677 -165.2461 -7.7166 -7.1054 2.5452 11.4410 -22.8186 -19.5867 
0.0000 93.1000 0.0000 37.3022 45.6028 41.4170 -71.3609 0.3085 88.5099 128.8956 58.1516 -45.7654 1.8240 12.8472 8.4793 -169.8714 19.1727 -178.3823 -139.2184 54.4196 160.0967 1.7941 -4.3226 -19.3232 -104.4667 18.8957 -128.6620 14.5265 6.0627 -63.9750 12.8265 -2.3325 -8.1567 -0.6208 1.7276 23.0011 -78.4484 -64.1689 56.2254 -6.5619 10.4568 37.8493 5.3968 0.5757 1.9025 -60.4933 -7.6351 85.3622 -4.5245 46.0676 -14.3322 3.5629 -0.5307 -0.6966 -6.8361 -29.3686 4.9845 1.9948 0.1660 81.8311 159.1062 76.8060 -156.4462 -8.1970 -7.0473 1.4253 10.7324 -23.5152 -19.7705 
0.0000 93.1000 0.0000 41.4645 45.5975 39.0228 -71.0268 -1.7166 88.1562 133.8548 57.3545 -47.3116 3.4593 14.0723 7.2665 -169.6525 19.1690 -179.0614 -140.0184 54.7379 161.2435 0.5680 -2.9670 -19.7869 -91.2699 22.9223 -125.4853 13.0686 5.3043 -64.3653 13.3211 -2.1064 -7.6885 -2.4841 2.8978 25.8539 -69.1246 -61.2063 68.1028 -12.1332 18.5813 37.4475 3.1258 0.3962 1.5281 -67.0923 -8.7469 80.9007 -3.1328 42.7048 -7.3461 -2.3216 3.9246 1.9384 -3.2694 -3.6495 4.6795 -6.5281 1.0898 78.4496 31.1147 82.9348 -23.8375 -7.5649 -4.9137 -0.8407 8.8438 -23.3053 -16.8359 
